<svg xmlns="http://www.w3.org/2000/svg" viewBox="0 0 1000 154.38"><defs><style>.cls-1{fill:#fff;}.cls-2{fill:#991b1e;}</style></defs><title>White_LogoType</title><g id="Layer_4" dataName="Layer 4"><path class="cls-1" d="M1000,123.66a5,5,0,1,1-5-4.84A4.88,4.88,0,0,1,1000,123.66Zm-8.72,0a3.76,3.76,0,0,0,3.78,3.88,3.88,3.88,0,0,0,0-7.75A3.77,3.77,0,0,0,991.28,123.66Zm3,2.55h-1.12v-4.85a9.76,9.76,0,0,1,1.86-.15,3,3,0,0,1,1.69.36,1.32,1.32,0,0,1,.47,1.06,1.23,1.23,0,0,1-1,1.12v.06A1.42,1.42,0,0,1,997,125a3.76,3.76,0,0,0,.36,1.22h-1.21a4.12,4.12,0,0,1-.39-1.19c-.09-.53-.38-.76-1-.76h-.54Zm0-2.75h.54c.62,0,1.12-.21,1.12-.71s-.33-.74-1-.74a2.73,2.73,0,0,0-.63.06Z" transform="translate(0 -0.09)"/><g id="g4415"><path id="path4417" class="cls-1" d="M1.16,112.27H63.54c7.51,0,10.4,0,14.44-1.16A19.16,19.16,0,0,0,92.42,94.92a136.6,136.6,0,0,0,1.15-17.35A78.61,78.61,0,0,0,93,66c-.58-8.67-2.31-13.3-6.36-16.77C82,44.62,75.09,42.88,60.07,42.88H0v69.39ZM22,96.08V60.23H57.76c12.13,0,14.44,2.89,14.44,17.34,0,12.15-1.15,15.62-6.35,17.35-2.31.58-2.89.58-8.67.58H22Z" transform="translate(0 -0.09)"/><path id="path4419" class="cls-1" d="M110.33,112.27h20.79V94.92h32.35c5.77,0,7.51,0,9.24,1.16s2.89,3.47,2.89,7.51v8.68H197v-11c0-5.78-.58-9.25-2.89-11.56s-4.62-3.47-12.13-3.47h-3.47c9.25-1.16,12.71-2.32,15-4.63,2.89-3.47,4.62-8.09,4.62-15.61,0-11-2.88-17.34-8.66-20.24-4-1.73-8.67-2.31-18.48-2.31h-59.5v68.81ZM131.7,78.15V60.23h33.5c6.35,0,8.09.58,9.82,1.73,1.15,1.74,1.73,3.47,1.73,7.52,0,6.94-1.73,8.09-12.13,8.09H131.7Z" transform="translate(0 -0.09)"/><path id="path4421" class="cls-1" d="M209.1,112.27h23.68l6.93-12.15h44.48l6.93,12.15h23.1L276.1,42.88H248.38L209.1,112.27Zm38.12-26.6,15-27.75,15,27.75Z" transform="translate(0 -0.09)"/><path id="path4423" class="cls-1" d="M412.42,66.59c0-14.46-3.47-20.24-13.86-22.55-4.62-1.16-10.4-1.16-29.46-1.16A240,240,0,0,0,342.53,44c-8.67,1.16-13.87,4.05-16.75,9.25-2.89,4.63-3.47,11-3.47,25.44,0,12.72.58,17.92,2.89,22.55,2.31,5.78,6.93,8.67,14.44,10.41,4.62,1.15,10.4,1.15,26.57,1.15,20.22,0,26.57,0,28.88-.57,8.67-1.16,13.86-4,16.17-10.41,1.16-3.47,1.74-8.1,1.74-19.08V73H365.63V85.67H392.2v4c-.57,3.47-2.31,5.2-6.35,6.36-2.31.58-2.31.58-13.29.58-17.9,0-18.48,0-21.37-1.16-5.2-1.74-6.93-5.21-6.93-16.77,0-4.62,0-11,.58-12.72.58-4.62,2.89-6.94,7.51-7.52,1.73,0,10.39-.57,19.06-.57h12.71c6.35,0,8.66,2.31,8.66,7.51h19.64Z" transform="translate(0 -0.09)"/><path id="path4425" class="cls-1" d="M473.65,42.31c-18.49,0-24.84.57-30.62,2.31C435,46.93,430.9,51,429.17,58.49c-1.15,4.63-1.73,7.52-1.73,19.09,0,15,.58,20.23,3.46,25.44s6.93,8.09,15,9.25c4,.57,12.71,1.15,28.88,1.15,6.93,0,16.18,0,19.64-.58,9.82-.57,16.17-2.31,20.22-5.78,5.77-4.62,7.51-11.56,7.51-28.33,0-8.67,0-13.88-.58-16.77-1.73-11-6.93-16.76-17.33-18.5-4.62-1.15-10.4-1.15-30.61-1.15Zm1.73,16.76c26,0,26.57,0,26.57,17.93,0,9.25-.58,12.72-2.31,15-2.31,3.47-6.35,4-24.26,4-16.17,0-19.06-.58-21.95-2.89C451.12,90.87,450,87.4,450,77c0-9.83.58-13.3,3.47-15.61,2.31-1.74,6.35-2.32,21.95-2.32Z" transform="translate(0 -0.09)"/></g><g id="g4427"><path id="path4429" class="cls-1" d="M932.42,68.32c0-5.2,1.15-6.93,4-8.67,2.89-1.16,5.2-1.16,20.8-1.16,20.21,0,22,1.16,22,17.93,0,11-.58,13.88-2.89,16.19-2.89,2.31-5.78,2.89-23.11,2.89-18.48,0-19.64-.58-20.21-8.1H912.78v2.32c0,10.4,2.31,16.19,8.09,19.08s11.55,3.47,37.54,3.47c19.64,0,26-1.16,32.35-4.63,7.51-4,9.24-11,9.24-28.91,0-20.81-1.73-27.75-8.66-32.38-5.78-3.47-12.13-4.62-31.77-4.62-13.87,0-22,0-26.57.57-11,.58-16.18,3.47-19.07,9.26-1.73,2.89-1.73,6.36-1.73,16.76Z" transform="translate(0 -0.09)"/><path id="path4431" class="cls-1" d="M896,42.31H874.66V68.9H826.71V42.31H805.34v69.38h21.37V86.25h47.95v25.44H896Z" transform="translate(0 -0.09)"/><path id="path4433" class="cls-1" d="M793.79,42.31H770.11l-6.93,12.14H718.7l-6.93-12.14H688.66l38.13,69.38h28.3l38.7-69.38ZM755.67,69.48l-15,27.75-15-27.75Z" transform="translate(0 -0.09)"/><path id="path4435" class="cls-1" d="M678.84,42.31H657.47v69.38h21.37Z" transform="translate(0 -0.09)"/></g><polygon class="cls-1" points="541.57 34.7 541.57 111.76 561.79 111.76 561.21 59.35 541.57 34.7"/><polygon class="cls-1" points="636.88 42.48 616.66 42.48 617.24 95.09 636.79 119.66 636.88 42.48"/><polygon class="cls-1" points="636.97 42.48 616.75 42.48 617.33 95.09 636.87 119.66 636.97 42.48"/><path id="path4413" class="cls-2" d="M541.57,34.78V.09l95.31,119.69v34.69Z" transform="translate(0 -0.09)"/></g></svg>
